<svg width="177" height="58" viewBox="0 0 177 58" fill="none" xmlns="http://www.w3.org/2000/svg">
<path d="M28.9385 0C12.9554 0 0 12.9829 0 29C0 45.0171 12.9554 58 28.9385 58C44.9217 58 57.8771 45.0171 57.8771 29C57.8771 12.9829 44.9217 0 28.9385 0ZM28.9385 49.405C17.6949 49.405 8.57675 40.2675 8.57675 29C8.57675 17.7306 17.6949 8.59496 28.9385 8.59496C29.1464 8.59496 29.3542 8.60592 29.5583 8.6114L21.7472 28.3003H29.4034L22.9084 41.6321L40.8512 21.8683H32.1104L39.3236 11.4466C45.2954 15.0014 49.304 21.5285 49.304 28.9982C49.3004 40.2675 40.184 49.405 28.9385 49.405Z" fill="#058C42"/>
<path d="M85.7164 12.7363C82.9329 12.7363 81.2777 14.0954 81.2649 15.9459C81.2412 18.001 83.425 18.8559 85.4412 19.3364L87.7453 19.9136C91.4403 20.7905 94.9567 22.7397 94.9676 27.007C94.9567 31.3474 91.5369 34.294 85.6453 34.294C79.9232 34.294 76.2866 31.541 76.1079 26.6471H80.4865C80.667 29.232 82.8271 30.4833 85.6107 30.4833C88.5146 30.4833 90.507 29.0767 90.5179 26.9723C90.507 25.0597 88.7552 24.2303 86.1029 23.558L83.3065 22.8346C79.2634 21.7879 76.755 19.7565 76.755 16.2217C76.7423 11.8685 80.6178 8.95849 85.7784 8.95849C91.0101 8.95849 94.5484 11.9051 94.6322 16.0646H90.3484C90.1206 13.973 88.3687 12.7363 85.7164 12.7363Z" fill="#1F242C"/>
<path d="M97.9426 24.7601C97.9426 19.0368 101.375 15.2115 106.773 15.2115C112.172 15.2115 115.605 19.035 115.605 24.7601C115.605 30.4705 112.172 34.283 106.773 34.283C101.375 34.283 97.9426 30.4705 97.9426 24.7601ZM111.202 24.7473C111.202 21.3677 109.739 18.6623 106.798 18.6623C103.811 18.6623 102.347 21.3677 102.347 24.7473C102.347 28.1268 103.811 30.7957 106.798 30.7957C109.739 30.7939 111.202 28.125 111.202 24.7473Z" fill="#1F242C"/>
<path d="M123.62 33.9213H119.276V9.29644H123.62V33.9213Z" fill="#1F242C"/>
<path d="M127.22 28.7388C127.22 24.5792 130.64 23.5087 134.215 23.1233C137.467 22.7744 138.774 22.7141 138.774 21.4646V21.3915C138.774 19.5757 137.671 18.5417 135.655 18.5417C133.531 18.5417 132.308 19.625 131.876 20.8873L127.82 20.31C128.779 16.9433 131.756 15.2115 135.631 15.2115C139.146 15.2115 143.118 16.6784 143.118 21.5614V33.9213H138.942V31.3839H138.798C138.005 32.9349 136.278 34.294 133.387 34.294C129.871 34.294 127.22 32.3704 127.22 28.7388ZM138.787 27.2956V25.1199C138.221 25.5766 135.943 25.8653 134.802 26.0224C132.859 26.2982 131.407 26.996 131.407 28.6675C131.407 30.266 132.702 31.0971 134.516 31.0971C137.13 31.0953 138.787 29.3526 138.787 27.2956Z" fill="#1F242C"/>
<path d="M147.496 15.4527H151.707V18.5308H151.899C152.571 16.3916 154.334 15.1878 156.447 15.1878C156.926 15.1878 157.612 15.2353 158.005 15.3065V19.3108C157.633 19.1902 156.722 19.0587 155.991 19.0587C153.603 19.0587 151.84 20.7174 151.84 23.063V33.9195H147.496V15.4527Z" fill="#1F242C"/>
<path d="M159.34 24.7601C159.34 19.0368 162.77 15.2115 168.17 15.2115C173.569 15.2115 177 19.035 177 24.7601C177 30.4705 173.569 34.283 168.17 34.283C162.77 34.283 159.34 30.4705 159.34 24.7601ZM172.598 24.7473C172.598 21.3677 171.134 18.6623 168.194 18.6623C165.206 18.6623 163.742 21.3677 163.742 24.7473C163.742 28.1268 165.206 30.7957 168.194 30.7957C171.132 30.7939 172.598 28.125 172.598 24.7473Z" fill="#1F242C"/>
<path d="M76.1061 38.9248C76.1061 38.6545 76.1735 38.4554 76.3048 38.3293C76.436 38.2033 76.6037 38.1393 76.8024 38.1393C76.992 38.1393 77.1561 38.2033 77.2946 38.3311C77.4332 38.459 77.5006 38.6563 77.5006 38.923C77.5006 39.1897 77.4313 39.387 77.2946 39.5185C77.1579 39.6501 76.992 39.714 76.8024 39.714C76.6037 39.714 76.436 39.6482 76.3048 39.5185C76.1735 39.3888 76.1061 39.1916 76.1061 38.9248ZM77.3894 48.8661H76.2082V41.0457H77.3894V48.8661Z" fill="#555555"/>
<path d="M85.2352 48.8661V43.806C85.2352 43.1684 85.0893 42.6935 84.8013 42.3793C84.5133 42.0651 84.0576 41.908 83.4414 41.908C82.6248 41.908 82.0269 42.129 81.6477 42.5711C81.2685 43.0132 81.0771 43.7439 81.0771 44.7614V48.8643H79.8959V41.0439H80.8565L81.0479 42.1144H81.1045C81.3469 41.7289 81.686 41.4293 82.1235 41.2193C82.561 41.0092 83.0459 40.9014 83.5836 40.9014C84.5242 40.9014 85.2315 41.1298 85.7055 41.5828C86.1794 42.0358 86.4182 42.7629 86.4182 43.7621V48.8643H85.2352V48.8661Z" fill="#555555"/>
<path d="M94.1583 47.8157H94.0945C93.5494 48.6104 92.7309 49.0068 91.6445 49.0068C90.6237 49.0068 89.8289 48.6579 89.262 47.9582C88.695 47.2586 88.4107 46.2648 88.4107 44.9769C88.4107 43.6891 88.6951 42.6862 89.2656 41.9719C89.8362 41.2576 90.6291 40.9014 91.6445 40.9014C92.7036 40.9014 93.5148 41.2869 94.0799 42.0578H94.1729L94.1236 41.4933L94.0945 40.9434V37.7612H95.2757V48.8643H94.315L94.1583 47.8157ZM91.794 48.0167C92.6015 48.0167 93.1867 47.7957 93.5494 47.3572C93.9122 46.9188 94.0945 46.2082 94.0945 45.2272V44.9769C94.0945 43.8681 93.9104 43.0771 93.5421 42.604C93.1739 42.1308 92.5869 41.8934 91.7794 41.8934C91.0867 41.8934 90.5562 42.1637 90.188 42.7026C89.8198 43.2415 89.6357 44.0051 89.6357 44.9897C89.6357 45.989 89.818 46.7416 90.1844 47.2513C90.5508 47.7609 91.0867 48.0167 91.794 48.0167Z" fill="#555555"/>
<path d="M101.08 49.0086C99.9259 49.0086 99.0163 48.6561 98.3491 47.9528C97.6819 47.2494 97.3483 46.2721 97.3483 45.0208C97.3483 43.7603 97.6582 42.7592 98.278 42.0157C98.8978 41.2723 99.729 40.9032 100.774 40.9032C101.752 40.9032 102.525 41.2248 103.094 41.8696C103.663 42.5145 103.949 43.3639 103.949 44.4198V45.1688H98.5733C98.597 46.0858 98.8285 46.7836 99.2678 47.2604C99.7072 47.7372 100.325 47.9747 101.124 47.9747C101.964 47.9747 102.795 47.7993 103.615 47.4467V48.5026C103.198 48.6835 102.802 48.8132 102.431 48.8917C102.059 48.9703 101.607 49.0086 101.08 49.0086ZM100.759 41.8934C100.132 41.8934 99.6324 42.0979 99.2605 42.5071C98.8887 42.9163 98.6681 43.4826 98.6025 44.206H102.682C102.682 43.4589 102.516 42.8871 102.184 42.4907C101.853 42.0943 101.375 41.8934 100.759 41.8934Z" fill="#555555"/>
<path d="M109.596 49.0086C109.088 49.0086 108.625 48.9155 108.204 48.7273C107.783 48.5391 107.431 48.2505 107.146 47.8596H107.061C107.117 48.3163 107.146 48.7492 107.146 49.1584V52.3772H105.965V41.0457H106.926L107.09 42.1162H107.146C107.451 41.6888 107.805 41.3782 108.207 41.1882C108.61 40.9982 109.073 40.9032 109.596 40.9032C110.632 40.9032 111.43 41.2576 111.992 41.9664C112.553 42.6752 112.836 43.669 112.836 44.9495C112.836 46.2338 112.55 47.233 111.977 47.9436C111.405 48.6542 110.612 49.0086 109.596 49.0086ZM109.425 41.908C108.627 41.908 108.051 42.129 107.695 42.5711C107.34 43.0132 107.157 43.7165 107.146 44.6828V44.9477C107.146 46.0474 107.329 46.8329 107.695 47.3061C108.062 47.7792 108.647 48.0167 109.454 48.0167C110.129 48.0167 110.657 47.7427 111.038 47.1965C111.419 46.6503 111.611 45.8958 111.611 44.9349C111.611 43.9594 111.419 43.2123 111.038 42.6898C110.657 42.1674 110.118 41.908 109.425 41.908Z" fill="#555555"/>
<path d="M118.197 49.0086C117.043 49.0086 116.133 48.6561 115.466 47.9528C114.799 47.2494 114.465 46.2721 114.465 45.0208C114.465 43.7603 114.775 42.7592 115.395 42.0157C116.015 41.2723 116.846 40.9032 117.891 40.9032C118.869 40.9032 119.642 41.2248 120.211 41.8696C120.78 42.5145 121.066 43.3639 121.066 44.4198V45.1688H115.69C115.714 46.0858 115.946 46.7836 116.385 47.2604C116.824 47.7372 117.442 47.9747 118.241 47.9747C119.081 47.9747 119.912 47.7993 120.733 47.4467V48.5026C120.315 48.6835 119.919 48.8132 119.548 48.8917C119.176 48.9703 118.724 49.0086 118.197 49.0086ZM117.878 41.8934C117.251 41.8934 116.751 42.0979 116.379 42.5071C116.008 42.9163 115.787 43.4826 115.721 44.206H119.801C119.801 43.4589 119.635 42.8871 119.303 42.4907C118.972 42.0943 118.494 41.8934 117.878 41.8934Z" fill="#555555"/>
<path d="M128.423 48.8661V43.806C128.423 43.1684 128.278 42.6935 127.99 42.3793C127.702 42.0651 127.246 41.908 126.63 41.908C125.813 41.908 125.215 42.129 124.836 42.5711C124.457 43.0132 124.265 43.7439 124.265 44.7614V48.8643H123.082V41.0439H124.043L124.234 42.1144H124.291C124.533 41.7289 124.872 41.4293 125.31 41.2193C125.747 41.0092 126.232 40.9014 126.77 40.9014C127.711 40.9014 128.418 41.1298 128.892 41.5828C129.366 42.0358 129.605 42.7629 129.605 43.7621V48.8643H128.423V48.8661Z" fill="#555555"/>
<path d="M137.345 47.8157H137.281C136.736 48.6104 135.917 49.0068 134.831 49.0068C133.81 49.0068 133.015 48.6579 132.448 47.9582C131.881 47.2586 131.597 46.2648 131.597 44.9751C131.597 43.6854 131.881 42.6843 132.452 41.9701C133.023 41.2558 133.816 40.8996 134.831 40.8996C135.89 40.8996 136.701 41.285 137.266 42.0559H137.359L137.31 41.4915L137.281 40.9416V37.7594H138.462V48.8625H137.501L137.345 47.8157ZM134.98 48.0167C135.788 48.0167 136.373 47.7957 136.736 47.3572C137.099 46.9188 137.281 46.2082 137.281 45.2272V44.9769C137.281 43.8681 137.097 43.0771 136.729 42.604C136.36 42.1308 135.773 41.8934 134.966 41.8934C134.273 41.8934 133.743 42.1637 133.374 42.7026C133.006 43.2415 132.822 44.0051 132.822 44.9897C132.822 45.989 133.004 46.7416 133.371 47.2513C133.737 47.7609 134.273 48.0167 134.98 48.0167Z" fill="#555555"/>
<path d="M144.266 49.0086C143.112 49.0086 142.203 48.6561 141.535 47.9528C140.868 47.2494 140.535 46.2721 140.535 45.0208C140.535 43.7603 140.845 42.7592 141.464 42.0157C142.084 41.2723 142.915 40.9032 143.96 40.9032C144.939 40.9032 145.712 41.2248 146.28 41.8696C146.849 42.5145 147.135 43.3639 147.135 44.4198V45.1688H141.76C141.783 46.0858 142.015 46.7836 142.454 47.2604C142.894 47.7372 143.511 47.9747 144.31 47.9747C145.15 47.9747 145.982 47.7993 146.802 47.4467V48.5026C146.384 48.6835 145.989 48.8132 145.617 48.8917C145.245 48.9703 144.793 49.0086 144.266 49.0086ZM143.945 41.8934C143.318 41.8934 142.819 42.0979 142.447 42.5071C142.075 42.9163 141.854 43.4826 141.789 44.206H145.868C145.868 43.4589 145.703 42.8871 145.371 42.4907C145.039 42.0943 144.563 41.8934 143.945 41.8934Z" fill="#555555"/>
<path d="M154.491 48.8661V43.806C154.491 43.1684 154.345 42.6935 154.057 42.3793C153.769 42.0651 153.313 41.908 152.697 41.908C151.88 41.908 151.283 42.129 150.903 42.5711C150.524 43.0132 150.333 43.7439 150.333 44.7614V48.8643H149.152V41.0439H150.112L150.304 42.1144H150.36C150.603 41.7289 150.942 41.4293 151.379 41.2193C151.817 41.0092 152.302 40.9014 152.839 40.9014C153.78 40.9014 154.487 41.1298 154.961 41.5828C155.435 42.0358 155.674 42.7629 155.674 43.7621V48.8643H154.491V48.8661Z" fill="#555555"/>
<path d="M160.623 48.0295C160.833 48.0295 161.033 48.0149 161.228 47.9838C161.423 47.9528 161.576 47.9199 161.691 47.887V48.7931C161.564 48.8552 161.374 48.9063 161.124 48.9465C160.875 48.9867 160.65 49.0068 160.452 49.0068C158.942 49.0068 158.188 48.2103 158.188 46.6156V41.9628H157.07V41.3946L158.188 40.9014L158.685 39.2317H159.369V41.0439H161.633V41.9646H159.369V46.5681C159.369 47.0394 159.48 47.4011 159.704 47.6532C159.929 47.9053 160.233 48.0295 160.623 48.0295Z" fill="#555555"/>
</svg>
