<svg width="177" height="58" viewBox="0 0 177 58" fill="none" xmlns="http://www.w3.org/2000/svg">
<path d="M28.9385 0C12.9554 0 0 12.9829 0 29C0 45.0171 12.9554 58 28.9385 58C44.9217 58 57.8771 45.0171 57.8771 29C57.8771 12.9829 44.9217 0 28.9385 0ZM28.9385 49.405C17.6949 49.405 8.57675 40.2675 8.57675 29C8.57675 17.7306 17.6949 8.59496 28.9385 8.59496C29.1464 8.59496 29.3542 8.60592 29.5583 8.6114L21.7472 28.3003H29.4034L22.9084 41.6321L40.8512 21.8683H32.1104L39.3236 11.4466C45.2954 15.0014 49.304 21.5285 49.304 28.9982C49.3004 40.2675 40.184 49.405 28.9385 49.405Z" fill="#058C42"/>
<path d="M85.7164 12.7358C82.9329 12.7358 81.2777 14.0949 81.2649 15.9454C81.2412 18.0005 83.425 18.8555 85.4412 19.3359L87.7453 19.9132C91.4403 20.79 94.9567 22.7392 94.9676 27.0065C94.9567 31.3469 91.5369 34.2935 85.6453 34.2935C79.9232 34.2935 76.2866 31.5406 76.1079 26.6466H80.4865C80.667 29.2315 82.8271 30.4829 85.6107 30.4829C88.5146 30.4829 90.507 29.0762 90.5179 26.9718C90.507 25.0592 88.7552 24.2298 86.1029 23.5576L83.3065 22.8342C79.2634 21.7874 76.755 19.7561 76.755 16.2213C76.7423 11.8681 80.6178 8.95801 85.7784 8.95801C91.0101 8.95801 94.5484 11.9046 94.6322 16.0641H90.3484C90.1206 13.9725 88.3687 12.7358 85.7164 12.7358Z" fill="white"/>
<path d="M97.9426 24.7604C97.9426 19.0372 101.375 15.2119 106.773 15.2119C112.172 15.2119 115.605 19.0353 115.605 24.7604C115.605 30.4709 112.172 34.2834 106.773 34.2834C101.375 34.2834 97.9426 30.4709 97.9426 24.7604ZM111.202 24.7477C111.202 21.3681 109.739 18.6627 106.798 18.6627C103.811 18.6627 102.347 21.3681 102.347 24.7477C102.347 28.1272 103.811 30.7961 106.798 30.7961C109.739 30.7943 111.202 28.1254 111.202 24.7477Z" fill="white"/>
<path d="M123.62 33.9218H119.276V9.29688H123.62V33.9218Z" fill="white"/>
<path d="M127.22 28.7392C127.22 24.5796 130.64 23.5091 134.215 23.1237C137.467 22.7747 138.774 22.7145 138.774 21.465V21.3919C138.774 19.5761 137.671 18.5421 135.655 18.5421C133.531 18.5421 132.308 19.6254 131.876 20.8877L127.82 20.3104C128.779 16.9437 131.756 15.2119 135.631 15.2119C139.146 15.2119 143.118 16.6788 143.118 21.5618V33.9217H138.942V31.3843H138.798C138.005 32.9353 136.278 34.2944 133.387 34.2944C129.871 34.2944 127.22 32.3708 127.22 28.7392ZM138.787 27.296V25.1203C138.221 25.577 135.943 25.8656 134.802 26.0227C132.859 26.2986 131.407 26.9964 131.407 28.6679C131.407 30.2663 132.702 31.0975 134.516 31.0975C137.13 31.0957 138.787 29.353 138.787 27.296Z" fill="white"/>
<path d="M147.496 15.4524H151.707V18.5305H151.899C152.571 16.3913 154.334 15.1875 156.447 15.1875C156.926 15.1875 157.612 15.235 158.005 15.3062V19.3105C157.633 19.19 156.722 19.0584 155.991 19.0584C153.603 19.0584 151.84 20.7171 151.84 23.0627V33.9192H147.496V15.4524Z" fill="white"/>
<path d="M159.34 24.7604C159.34 19.0372 162.77 15.2119 168.17 15.2119C173.569 15.2119 177 19.0353 177 24.7604C177 30.4709 173.569 34.2834 168.17 34.2834C162.77 34.2834 159.34 30.4709 159.34 24.7604ZM172.598 24.7477C172.598 21.3681 171.134 18.6627 168.194 18.6627C165.206 18.6627 163.742 21.3681 163.742 24.7477C163.742 28.1272 165.206 30.7961 168.194 30.7961C171.132 30.7943 172.598 28.1254 172.598 24.7477Z" fill="white"/>
<path d="M76.1061 38.9252C76.1061 38.6548 76.1735 38.4557 76.3048 38.3296C76.436 38.2036 76.6037 38.1396 76.8024 38.1396C76.992 38.1396 77.1561 38.2036 77.2946 38.3315C77.4332 38.4593 77.5006 38.6566 77.5006 38.9233C77.5006 39.19 77.4313 39.3873 77.2946 39.5189C77.1579 39.6504 76.992 39.7143 76.8024 39.7143C76.6037 39.7143 76.436 39.6486 76.3048 39.5189C76.1735 39.3892 76.1061 39.1919 76.1061 38.9252ZM77.3894 48.8665H76.2082V41.046H77.3894V48.8665Z" fill="white"/>
<path d="M85.2352 48.8661V43.8059C85.2352 43.1684 85.0893 42.6934 84.8013 42.3792C84.5133 42.065 84.0576 41.9079 83.4414 41.9079C82.6248 41.9079 82.0269 42.129 81.6477 42.571C81.2685 43.0131 81.0771 43.7438 81.0771 44.7613V48.8643H79.8959V41.0439H80.8565L81.0479 42.1143H81.1045C81.3469 41.7289 81.686 41.4293 82.1235 41.2192C82.561 41.0091 83.0459 40.9014 83.5836 40.9014C84.5242 40.9014 85.2315 41.1297 85.7055 41.5828C86.1794 42.0358 86.4182 42.7628 86.4182 43.7621V48.8643H85.2352V48.8661Z" fill="white"/>
<path d="M94.1583 47.8153H94.0945C93.5494 48.6099 92.7309 49.0064 91.6445 49.0064C90.6237 49.0064 89.8289 48.6574 89.262 47.9578C88.695 47.2581 88.4107 46.2644 88.4107 44.9765C88.4107 43.6886 88.6951 42.6857 89.2656 41.9715C89.8362 41.2572 90.6291 40.901 91.6445 40.901C92.7036 40.901 93.5148 41.2864 94.0799 42.0573H94.1729L94.1236 41.4928L94.0945 40.943V37.7607H95.2757V48.8639H94.315L94.1583 47.8153ZM91.794 48.0162C92.6015 48.0162 93.1867 47.7952 93.5494 47.3568C93.9122 46.9184 94.0945 46.2077 94.0945 45.2268V44.9765C94.0945 43.8676 93.9104 43.0767 93.5421 42.6035C93.1739 42.1304 92.5869 41.8929 91.7794 41.8929C91.0867 41.8929 90.5562 42.1633 90.188 42.7022C89.8198 43.2411 89.6357 44.0047 89.6357 44.9893C89.6357 45.9885 89.818 46.7412 90.1844 47.2508C90.5508 47.7605 91.0867 48.0162 91.794 48.0162Z" fill="white"/>
<path d="M101.08 49.0087C99.9259 49.0087 99.0163 48.6561 98.3491 47.9528C97.6819 47.2495 97.3483 46.2722 97.3483 45.0209C97.3483 43.7604 97.6582 42.7593 98.278 42.0158C98.8978 41.2723 99.729 40.9033 100.774 40.9033C101.752 40.9033 102.525 41.2248 103.094 41.8697C103.663 42.5145 103.949 43.364 103.949 44.4199V45.1688H98.5733C98.597 46.0859 98.8285 46.7837 99.2678 47.2605C99.7072 47.7373 100.325 47.9748 101.124 47.9748C101.964 47.9748 102.795 47.7994 103.615 47.4468V48.5027C103.198 48.6835 102.802 48.8132 102.431 48.8918C102.059 48.9703 101.607 49.0087 101.08 49.0087ZM100.759 41.8934C100.132 41.8934 99.6324 42.098 99.2605 42.5072C98.8887 42.9164 98.6681 43.4827 98.6025 44.2061H102.682C102.682 43.459 102.516 42.8872 102.184 42.4908C101.853 42.0944 101.375 41.8934 100.759 41.8934Z" fill="white"/>
<path d="M109.596 49.0087C109.088 49.0087 108.625 48.9155 108.204 48.7274C107.783 48.5392 107.431 48.2506 107.146 47.8597H107.061C107.117 48.3164 107.146 48.7493 107.146 49.1585V52.3773H105.965V41.0458H106.926L107.09 42.1163H107.146C107.451 41.6888 107.805 41.3783 108.207 41.1883C108.61 40.9983 109.073 40.9033 109.596 40.9033C110.632 40.9033 111.43 41.2577 111.992 41.9665C112.553 42.6753 112.836 43.6691 112.836 44.9496C112.836 46.2338 112.55 47.2331 111.977 47.9437C111.405 48.6543 110.612 49.0087 109.596 49.0087ZM109.425 41.908C108.627 41.908 108.051 42.1291 107.695 42.5712C107.34 43.0132 107.157 43.7165 107.146 44.6829V44.9478C107.146 46.0475 107.329 46.833 107.695 47.3062C108.062 47.7793 108.647 48.0168 109.454 48.0168C110.129 48.0168 110.657 47.7428 111.038 47.1965C111.419 46.6503 111.611 45.8959 111.611 44.935C111.611 43.9595 111.419 43.2124 111.038 42.6899C110.657 42.1674 110.118 41.908 109.425 41.908Z" fill="white"/>
<path d="M118.197 49.0087C117.043 49.0087 116.133 48.6561 115.466 47.9528C114.799 47.2495 114.465 46.2722 114.465 45.0209C114.465 43.7604 114.775 42.7593 115.395 42.0158C116.015 41.2723 116.846 40.9033 117.891 40.9033C118.869 40.9033 119.642 41.2248 120.211 41.8697C120.78 42.5145 121.066 43.364 121.066 44.4199V45.1688H115.69C115.714 46.0859 115.946 46.7837 116.385 47.2605C116.824 47.7373 117.442 47.9748 118.241 47.9748C119.081 47.9748 119.912 47.7994 120.733 47.4468V48.5027C120.315 48.6835 119.919 48.8132 119.548 48.8918C119.176 48.9703 118.724 49.0087 118.197 49.0087ZM117.878 41.8934C117.251 41.8934 116.751 42.098 116.379 42.5072C116.008 42.9164 115.787 43.4827 115.721 44.2061H119.801C119.801 43.459 119.635 42.8872 119.303 42.4908C118.972 42.0944 118.494 41.8934 117.878 41.8934Z" fill="white"/>
<path d="M128.423 48.8661V43.8059C128.423 43.1684 128.278 42.6934 127.99 42.3792C127.702 42.065 127.246 41.9079 126.63 41.9079C125.813 41.9079 125.215 42.129 124.836 42.571C124.457 43.0131 124.265 43.7438 124.265 44.7613V48.8643H123.082V41.0439H124.043L124.234 42.1143H124.291C124.533 41.7289 124.872 41.4293 125.31 41.2192C125.747 41.0091 126.232 40.9014 126.77 40.9014C127.711 40.9014 128.418 41.1297 128.892 41.5828C129.366 42.0358 129.605 42.7628 129.605 43.7621V48.8643H128.423V48.8661Z" fill="white"/>
<path d="M137.345 47.8161H137.281C136.736 48.6108 135.917 49.0072 134.831 49.0072C133.81 49.0072 133.015 48.6583 132.448 47.9586C131.881 47.259 131.597 46.2652 131.597 44.9755C131.597 43.6858 131.881 42.6847 132.452 41.9705C133.023 41.2562 133.816 40.9 134.831 40.9C135.89 40.9 136.701 41.2854 137.266 42.0563H137.359L137.31 41.4919L137.281 40.942V37.7598H138.462V48.8629H137.501L137.345 47.8161ZM134.98 48.0171C135.788 48.0171 136.373 47.7961 136.736 47.3576C137.099 46.9192 137.281 46.2086 137.281 45.2276V44.9773C137.281 43.8685 137.097 43.0775 136.729 42.6044C136.36 42.1312 135.773 41.8938 134.966 41.8938C134.273 41.8938 133.743 42.1641 133.374 42.703C133.006 43.2419 132.822 44.0055 132.822 44.9901C132.822 45.9894 133.004 46.742 133.371 47.2517C133.737 47.7613 134.273 48.0171 134.98 48.0171Z" fill="white"/>
<path d="M144.266 49.0087C143.112 49.0087 142.203 48.6561 141.535 47.9528C140.868 47.2495 140.535 46.2722 140.535 45.0209C140.535 43.7604 140.845 42.7593 141.464 42.0158C142.084 41.2723 142.915 40.9033 143.96 40.9033C144.939 40.9033 145.712 41.2248 146.28 41.8697C146.849 42.5145 147.135 43.364 147.135 44.4199V45.1688H141.76C141.783 46.0859 142.015 46.7837 142.454 47.2605C142.894 47.7373 143.511 47.9748 144.31 47.9748C145.15 47.9748 145.982 47.7994 146.802 47.4468V48.5027C146.384 48.6835 145.989 48.8132 145.617 48.8918C145.245 48.9703 144.793 49.0087 144.266 49.0087ZM143.945 41.8934C143.318 41.8934 142.819 42.098 142.447 42.5072C142.075 42.9164 141.854 43.4827 141.789 44.2061H145.868C145.868 43.459 145.703 42.8872 145.371 42.4908C145.039 42.0944 144.563 41.8934 143.945 41.8934Z" fill="white"/>
<path d="M154.491 48.8661V43.8059C154.491 43.1684 154.345 42.6934 154.057 42.3792C153.769 42.065 153.313 41.9079 152.697 41.9079C151.88 41.9079 151.283 42.129 150.903 42.571C150.524 43.0131 150.333 43.7438 150.333 44.7613V48.8643H149.152V41.0439H150.112L150.304 42.1143H150.36C150.603 41.7289 150.942 41.4293 151.379 41.2192C151.817 41.0091 152.302 40.9014 152.839 40.9014C153.78 40.9014 154.487 41.1297 154.961 41.5828C155.435 42.0358 155.674 42.7628 155.674 43.7621V48.8643H154.491V48.8661Z" fill="white"/>
<path d="M160.623 48.0292C160.833 48.0292 161.033 48.0146 161.228 47.9835C161.423 47.9525 161.576 47.9196 161.691 47.8867V48.7928C161.564 48.8549 161.374 48.906 161.124 48.9462C160.875 48.9864 160.65 49.0065 160.452 49.0065C158.942 49.0065 158.188 48.21 158.188 46.6153V41.9625H157.07V41.3943L158.188 40.9011L158.685 39.2314H159.369V41.0436H161.633V41.9643H159.369V46.5678C159.369 47.0391 159.48 47.4008 159.704 47.6529C159.929 47.905 160.233 48.0292 160.623 48.0292Z" fill="white"/>
</svg>
