<svg width="80" height="80" viewBox="0 0 80 80" fill="none" xmlns="http://www.w3.org/2000/svg">
<path d="M65.1508 68.0583C58.2349 74.2479 49.3029 77.6567 40 77.6567C29.9442 77.6567 20.4901 73.756 13.3792 66.6731C6.2686 59.5902 2.35255 50.173 2.35255 40.1562C2.35255 30.1394 6.2686 20.7224 13.3792 13.6394C20.4901 6.55647 29.9442 2.65571 40 2.65571C44.8442 2.65571 49.5625 3.56071 54.0236 5.34589C54.6261 5.58678 55.3113 5.29605 55.5537 4.69537C55.7958 4.095 55.5035 3.41261 54.9006 3.1714C50.1591 1.27437 45.1458 0.3125 40 0.3125C29.3157 0.3125 19.2708 4.45697 11.7157 11.9824C4.16071 19.5079 0 29.5136 0 40.1562C0 50.7988 4.16071 60.8045 11.7157 68.33C19.2708 75.8555 29.3157 79.9999 40 79.9999C49.8843 79.9999 59.3748 76.3779 66.7232 69.8011C67.2065 69.3687 67.2463 68.6279 66.812 68.1466C66.3777 67.6654 65.634 67.6256 65.1508 68.0583Z" fill="#058C42"/>
<path d="M76.9102 24.779C76.6594 24.1821 75.9701 23.9009 75.371 24.1508C74.7717 24.4008 74.4894 25.0872 74.7404 25.684C76.6693 30.2731 77.6473 35.1421 77.6473 40.156C77.6473 49.0953 74.4355 57.7535 68.6037 64.536C68.1811 65.0275 68.2385 65.7672 68.7318 66.1881C68.9536 66.3773 69.2255 66.4699 69.4964 66.4699C69.8281 66.4699 70.1578 66.3309 70.3903 66.0604C76.5871 58.8537 79.9999 49.6539 79.9999 40.1561C79.9997 34.8297 78.9602 29.6562 76.9102 24.779Z" fill="#058C42"/>
<path d="M14.1365 25.7103C13.5581 25.4163 12.8495 25.6447 12.5539 26.221C10.3285 30.562 9.19995 35.2505 9.19995 40.1562C9.19995 57.0731 23.0168 70.8358 40 70.8358C56.9831 70.8358 70.8 57.0729 70.8 40.1562C70.8 37.285 70.4013 34.4408 69.6147 31.7026C69.436 31.0805 68.7846 30.7211 68.1604 30.8984C67.5359 31.0765 67.1744 31.7251 67.353 32.3472C68.0793 34.8757 68.4476 37.5031 68.4476 40.1562C68.4476 55.781 55.6861 68.4925 40.0001 68.4925C24.3141 68.4925 11.5525 55.7808 11.5525 40.1561C11.5525 35.6243 12.5944 31.2944 14.6491 27.2866C14.9446 26.7103 14.7149 26.0047 14.1365 25.7103Z" fill="#058C42"/>
<path d="M48.953 11.9976C49.1241 11.3733 48.7546 10.729 48.1279 10.5587C45.4868 9.84056 42.7522 9.47656 40 9.47656C35.0589 9.47656 30.3387 10.6072 25.971 12.8369C21.8056 14.9635 18.1194 18.0667 15.311 21.8112C14.9222 22.3296 15.0287 23.0638 15.5492 23.4511C15.7606 23.6083 16.0075 23.6842 16.2523 23.6842C16.6107 23.6842 16.9645 23.5216 17.1955 23.2137C19.7907 19.7539 23.1962 16.8867 27.0441 14.9224C31.0766 12.8637 35.4356 11.8199 40 11.8199C42.543 11.8199 45.0691 12.1561 47.5085 12.8194C48.1348 12.9897 48.7819 12.6218 48.953 11.9976Z" fill="#058C42"/>
<path d="M42.5183 20.8026C42.5623 20.157 42.0725 19.5981 41.4243 19.5542C40.9397 19.5216 40.4604 19.5049 39.9996 19.5049C28.5678 19.5049 19.2676 28.769 19.2676 40.156C19.2676 51.543 28.568 60.8071 39.9996 60.8071C51.4313 60.8071 60.7317 51.543 60.7317 40.156C60.7317 39.6115 60.7093 39.0546 60.6652 38.5005C60.6137 37.8556 60.0499 37.3736 59.3997 37.425C58.7521 37.4763 58.2687 38.0406 58.32 38.6856C58.3592 39.1783 58.3791 39.6731 58.3791 40.156C58.3791 50.2509 50.1341 58.4637 39.9996 58.4637C29.8652 58.4637 21.6201 50.2509 21.6201 40.156C21.6201 30.0611 29.8652 21.8482 39.9996 21.8482C40.4076 21.8482 40.8331 21.8631 41.265 21.8923C41.9102 21.9349 42.4744 21.4483 42.5183 20.8026Z" fill="#058C42"/>
<path d="M39.9916 32.0808C40.0129 32.0816 40.0341 32.0822 40.0556 32.0824C40.7005 32.0816 41.2374 31.5661 41.2419 30.919C41.2466 30.2719 40.7255 29.7436 40.0758 29.7389C40.0504 29.7381 40.0252 29.7373 39.9996 29.7373C34.2323 29.7373 29.54 34.4112 29.54 40.1562C29.54 45.9012 34.2323 50.5751 39.9996 50.5751C45.7216 50.5751 50.4129 45.9381 50.4575 40.2382C50.4625 39.5911 49.9399 39.0625 49.2905 39.0575H49.281C48.6357 39.0575 48.1099 39.5761 48.1049 40.2201C48.0706 44.6378 44.4346 48.2317 39.9996 48.2317C35.5293 48.2317 31.8926 44.6091 31.8926 40.1562C31.8926 35.7033 35.5295 32.0807 39.9916 32.0808Z" fill="#058C42"/>
<path d="M44.9749 22.1691L47.1357 28.6774L41.3843 34.6092C40.0382 35.9975 39.292 37.9004 39.3371 39.8299C39.352 40.4651 39.8726 40.9728 40.5104 40.9742H40.5264C42.4582 40.9742 44.346 40.1917 45.7074 38.826L47.1771 37.3515C47.6347 36.8924 47.6321 36.1505 47.1711 35.6946C46.7103 35.2389 45.9654 35.2411 45.5077 35.7006L44.038 37.175C43.4296 37.7854 42.666 38.2239 41.841 38.4518C42.0525 37.6256 42.4765 36.856 43.0764 36.2373L70.1172 8.3476C70.2021 8.26011 70.3001 8.24074 70.3675 8.2398C70.4306 8.23824 70.5335 8.25558 70.6208 8.34072L71.4602 9.15934C71.5476 9.24448 71.5666 9.34228 71.567 9.40945C71.5675 9.47663 71.5501 9.57489 71.4641 9.66097L49.1037 32.0932C48.646 32.5523 48.6487 33.2942 49.1096 33.7501C49.5704 34.2058 50.3152 34.2035 50.773 33.7442L51.5407 32.974C51.5407 32.974 58.6425 35.1074 58.9064 35.1074C59.5775 35.1074 60.2376 34.8576 60.7417 34.3914L79.1071 17.3973C79.784 16.7709 80.0891 15.8564 79.9228 14.951C79.7567 14.0457 79.1468 13.2977 78.2912 12.9504L73.4183 10.9715C73.7463 10.5132 73.9235 9.96717 73.9194 9.39305C73.9142 8.66926 73.6255 7.99188 73.1062 7.4854L72.2668 6.66678C71.7568 6.16921 71.0859 5.8966 70.3735 5.8966C70.3608 5.8966 70.3479 5.8966 70.3351 5.89675C69.7587 5.90472 69.2143 6.09266 68.7612 6.42885L66.6728 1.61746C66.3061 0.77276 65.5426 0.180983 64.6305 0.0346007C63.7185 -0.111625 62.8068 0.211134 62.1923 0.898364L45.5206 19.544C44.883 20.2567 44.674 21.2626 44.9749 22.1691ZM69.366 23.2125L63.6038 20.8724L67.2606 17.2039L73.2367 19.6309L69.366 23.2125ZM63.5759 28.5702L58.1476 26.346L61.8082 22.6738L67.4654 24.9712L63.5759 28.5702ZM59.1406 32.6745C59.0524 32.7564 58.9257 32.7853 58.8101 32.7498L53.4129 31.096L56.3544 28.1451L61.678 30.3265L59.1406 32.6745ZM77.6087 15.3724C77.6211 15.4405 77.6244 15.5709 77.506 15.6806L75.1374 17.8723L69.0562 15.4027L71.6618 12.7887L77.4031 15.1204C77.5529 15.1812 77.5961 15.3044 77.6087 15.3724ZM54.8345 12.6505L57.259 18.2363L53.6499 21.9588L51.3038 16.5994L54.8345 12.6505ZM60.0736 6.79098L62.6347 12.6917L59.0294 16.4103L56.5598 10.7208L60.0736 6.79098ZM63.949 2.45686C64.0568 2.33641 64.188 2.33688 64.2563 2.34812C64.3248 2.35906 64.4493 2.39968 64.5136 2.54747L66.9742 8.21621L64.4053 10.8658L61.7991 4.8613L63.949 2.45686ZM47.2771 21.1025L49.5806 18.5264L51.8815 23.7825L48.9815 26.7736L47.2085 21.4332C47.1707 21.319 47.197 21.1923 47.2771 21.1025Z" fill="#058C42"/>
</svg>
