<svg width="80" height="80" viewBox="0 0 80 80" fill="none" xmlns="http://www.w3.org/2000/svg">
<path d="M53.2927 28.8861C53.0021 28.5954 52.5989 28.4282 52.1879 28.4282C51.7769 28.4282 51.3737 28.5953 51.083 28.8861C50.7923 29.177 50.6251 29.58 50.6251 29.991C50.6251 30.402 50.7922 30.8052 51.083 31.0958C51.3737 31.3864 51.7769 31.5538 52.1879 31.5538C52.5989 31.5538 53.0021 31.3864 53.2927 31.0958C53.5833 30.8052 53.7507 30.402 53.7507 29.991C53.7507 29.58 53.5835 29.1768 53.2927 28.8861Z" fill="#058C42"/>
<path d="M48.4628 51.7502C46.2234 51.7502 44.4015 50.1613 44.4015 48.2082C44.4015 46.2552 46.2234 44.6662 48.4628 44.6662C50.7021 44.6662 52.5239 46.2552 52.5239 48.2082C52.5239 49.0712 53.2235 49.771 54.0864 49.771C54.9492 49.771 55.6489 49.0712 55.6489 48.2082C55.6489 45.0297 53.2385 42.3651 50.0253 41.7012V41.5445C50.0253 40.6815 49.3256 39.9817 48.4628 39.9817C47.5999 39.9817 46.9003 40.6815 46.9003 41.5445V41.7012C43.6868 42.3651 41.2765 45.0297 41.2765 48.2082C41.2765 51.8847 44.5002 54.8757 48.4628 54.8757C50.7021 54.8757 52.5239 56.4648 52.5239 58.4178C52.5239 60.3708 50.7021 61.9599 48.4628 61.9599C46.2234 61.9599 44.4015 60.371 44.4015 58.418C44.4015 57.555 43.7018 56.8552 42.839 56.8552C41.9762 56.8552 41.2765 57.555 41.2765 58.418C41.2765 61.5965 43.6868 64.2609 46.9003 64.9248V65.321C46.9003 66.184 47.5999 66.8838 48.4628 66.8838C49.3256 66.8838 50.0253 66.184 50.0253 65.321V64.9247C53.2385 64.2608 55.6489 61.5964 55.6489 58.4178C55.6489 54.7413 52.4251 51.7502 48.4628 51.7502Z" fill="#058C42"/>
<path d="M69.5931 30.0252L60.3484 18.4651L64.9797 9.3723C65.9959 7.37708 65.6026 5.09243 63.9779 3.55214C62.3531 2.01169 60.0511 1.74133 58.1132 2.86295C57.4679 3.23677 56.6457 3.1716 56.0693 2.70276C51.6537 -0.898074 45.2401 -0.902919 40.8077 2.7012C40.2291 3.17175 39.4071 3.23677 38.7618 2.86279C36.8241 1.74117 34.5221 2.01154 32.8973 3.55214C31.2726 5.09243 30.8793 7.37723 31.8955 9.3723L36.5423 18.4953L31.1577 25.2284C30.6188 25.9024 30.728 26.8857 31.4019 27.4251C32.076 27.9642 33.059 27.8547 33.5982 27.1808L39.1491 20.2395H50.6251V24.6252C50.6251 25.4881 51.3248 26.188 52.1876 26.188C53.0504 26.188 53.7501 25.4881 53.7501 24.6252V20.2395H56.1329V35.8512C56.1329 36.7142 56.8326 37.414 57.6954 37.414C58.5582 37.414 59.2579 36.7142 59.2579 35.8512V22.1053L67.1525 31.9773C73.4222 39.8176 76.8752 49.6644 76.8752 59.7038C76.8752 69.1718 69.1737 76.8747 59.7075 76.8747H37.2074C31.5499 76.8747 26.3902 74.175 23.1719 69.5947C28.9126 66.5642 32.6746 63.4887 34.8699 60.062C37.2679 56.3188 37.541 52.6123 37.6351 48.5026C37.6354 48.4906 37.6355 48.4787 37.6355 48.4668V35.4814C37.6355 34.8712 37.2804 34.3167 36.726 34.0616L19.4707 26.1226C19.0563 25.9318 18.5793 25.9318 18.1649 26.1226L0.909533 34.0616C0.355157 34.3167 0 34.8712 0 35.4814V48.4668C0 48.4787 0.00015625 48.4906 0.000468751 48.5026C0.0946877 52.6123 0.367813 56.3188 2.76563 60.062C5.40173 64.1768 10.2944 67.7852 18.163 71.4174C18.3707 71.5132 18.5943 71.5612 18.8177 71.5612C19.0411 71.5612 19.2647 71.5132 19.4724 71.4174C19.7704 71.2799 20.0625 71.1424 20.3519 71.0048C22.081 73.5788 24.3877 75.7414 27.076 77.2934C30.1432 79.0642 33.6466 80.0001 37.2073 80.0001H59.7073C70.8967 80.0001 80 70.8951 80 59.7036C80.0002 48.9576 76.3042 38.4173 69.5931 30.0252ZM57.5298 17.1139H39.3457L34.6801 7.95359C34.1112 6.83666 34.8171 6.0387 35.0471 5.82069C35.2771 5.60252 36.1126 4.94068 37.1962 5.56799C38.9571 6.5874 41.2004 6.41018 42.7909 5.11681C46.0681 2.45256 50.8217 2.456 54.0964 5.12665C55.6751 6.41002 57.9184 6.58755 59.679 5.56814C60.7632 4.9399 61.5983 5.60252 61.8283 5.82069C62.0583 6.0387 62.7642 6.83666 62.1954 7.95359L57.5298 17.1139ZM18.8179 68.2738C3.42673 61.0114 3.27923 55.1819 3.12501 48.4492V36.4829L18.8179 29.2628L34.5107 36.4829V48.4492C34.3563 55.1819 34.209 61.0114 18.8179 68.2738Z" fill="#058C42"/>
<path d="M28.7943 43.5657C28.1842 42.9556 27.1951 42.9556 26.5848 43.5657L17.8287 52.3235L14.1219 48.6161C13.5116 48.006 12.5226 48.006 11.9121 48.6161C11.3019 49.2263 11.3019 50.2159 11.9121 50.8263L16.7237 55.6388C17.0288 55.9439 17.4287 56.0965 17.8285 56.0965C18.2283 56.0965 18.6282 55.9439 18.9333 55.6388L28.7943 45.776C29.4045 45.1657 29.4045 44.1762 28.7943 43.5657Z" fill="#058C42"/>
</svg>
