<svg width="80" height="80" viewBox="0 0 80 80" fill="none" xmlns="http://www.w3.org/2000/svg">
<path d="M25.9466 32.5094C27.031 36.7543 29.7977 40.6032 33.7372 43.3474C37.6936 46.1035 42.6811 47.6212 47.7804 47.6212C52.8796 47.6212 57.8669 46.1032 61.8235 43.3474C65.763 40.6032 68.5297 36.7541 69.6141 32.5094C69.6627 32.3193 69.6627 32.1197 69.6141 31.9296C68.5297 27.6847 65.763 23.8358 61.8235 21.0916C57.8671 18.3357 52.8797 16.8179 47.7804 16.8179C42.681 16.8179 37.6938 18.3358 33.7372 21.0916C29.7977 23.8358 27.031 27.6849 25.9466 31.9296C25.898 32.1199 25.898 32.3191 25.9466 32.5094ZM34.7213 32.2194C34.7213 25.0187 40.5796 19.1602 47.7805 19.1602C54.9814 19.1602 60.8397 25.0185 60.8397 32.2194C60.8397 39.4204 54.9814 45.2787 47.7805 45.2787C40.5796 45.2787 34.7213 39.4202 34.7213 32.2194ZM67.2671 32.2194C66.1724 36.1643 63.4433 39.5357 59.7779 41.8654C61.9061 39.2236 63.1821 35.868 63.1821 32.2194C63.1821 28.5708 61.906 25.2154 59.7779 22.5735C63.4433 24.9033 66.1724 28.2746 67.2671 32.2194ZM35.7829 22.5735C33.6546 25.2152 32.3785 28.5708 32.3785 32.2196C32.3785 35.8683 33.6546 39.2238 35.7829 41.8657C32.1174 39.536 29.3883 36.1647 28.2936 32.2196C29.3883 28.2744 32.1174 24.9032 35.7829 22.5735Z" fill="#058C42"/>
<path d="M47.7806 23.2861C42.8547 23.2861 38.8472 27.2936 38.8472 32.2196C38.8472 37.1455 42.8547 41.153 47.7806 41.153C52.7065 41.153 56.714 37.1455 56.714 32.2196C56.714 27.2936 52.7065 23.2861 47.7806 23.2861ZM47.7806 38.8102C44.1465 38.8102 41.1898 35.8536 41.1898 32.2194C41.1898 28.5852 44.1464 25.6286 47.7806 25.6286C51.4147 25.6286 54.3714 28.5852 54.3714 32.2194C54.3714 35.8536 51.4147 38.8102 47.7806 38.8102Z" fill="#058C42"/>
<path d="M47.7804 59.2646C62.6929 59.2646 74.8254 47.1323 74.8254 32.2197C74.8254 17.307 62.6929 5.1748 47.7804 5.1748C32.8679 5.1748 20.7354 17.307 20.7354 32.2198C20.7354 47.1326 32.8679 59.2646 47.7804 59.2646ZM47.7804 7.51746C61.4011 7.51746 72.4825 18.5987 72.4825 32.2197C72.4825 45.8406 61.4013 56.922 47.7804 56.922C34.1594 56.922 23.0782 45.8406 23.0782 32.2198C23.0782 18.599 34.1596 7.51746 47.7804 7.51746Z" fill="#058C42"/>
<path d="M47.7805 0C40.0739 0 32.6161 2.76406 26.7809 7.78281C26.2905 8.20469 26.2348 8.94422 26.6567 9.43469C27.0784 9.92516 27.8183 9.98063 28.3086 9.55891C33.7189 4.90547 40.6342 2.34266 47.7805 2.34266C64.2547 2.34266 77.6573 15.7455 77.6573 32.2195C77.6573 48.6936 64.2547 62.0966 47.7805 62.0966C31.3063 62.0966 17.9036 48.6937 17.9036 32.2195C17.9036 25.0733 20.4662 18.158 25.1198 12.7477C25.5417 12.2572 25.4861 11.5177 24.9956 11.0958C24.505 10.6739 23.7656 10.7295 23.3438 11.22C18.325 17.0552 15.5609 24.513 15.5609 32.2194C15.5609 38.3394 17.2764 44.0659 20.2513 48.9445L16.6403 52.5555L16.5223 52.4375C15.5786 51.4939 14.0428 51.4938 13.0989 52.4375L1.075 64.4617C0.381719 65.155 0 66.0766 0 67.0569C0 68.0372 0.381875 68.9589 1.075 69.652L10.3478 78.925C11.0411 79.6181 11.9627 80 12.943 80C13.9233 80 14.845 79.6183 15.5381 78.925L27.5622 66.9009C28.5058 65.9572 28.5058 64.4214 27.562 63.4775L27.4442 63.3597L31.055 59.7487C35.9334 62.7236 41.6602 64.4391 47.7802 64.4391C65.5462 64.4392 80 49.9855 80 32.2195C80 14.4538 65.5464 0 47.7805 0V0ZM20.2994 70.8509L14.4623 65.0139C14.0048 64.5564 13.2633 64.5564 12.8059 65.0139C12.3484 65.4714 12.3484 66.213 12.8059 66.6703L18.643 72.5073L13.882 77.2683C13.6314 77.5189 13.298 77.6572 12.9433 77.6572C12.5886 77.6572 12.2553 77.5191 12.0047 77.2683C12.0045 77.2683 12.0045 77.2683 12.0045 77.2683L2.73172 67.9955C2.48094 67.7448 2.34281 67.4116 2.34281 67.0569C2.34281 66.7022 2.48094 66.3689 2.73172 66.1181L7.49266 61.3572L9.49281 63.3573C9.95031 63.8148 10.6919 63.8148 11.1492 63.3573C11.6067 62.8998 11.6067 62.1583 11.1492 61.7008L9.14922 59.7008L11.1517 57.6983L22.3019 68.8486L20.2994 70.8509ZM25.9058 65.2445L23.9584 67.1919L12.8083 56.0416L14.7555 54.0944C14.7708 54.0791 14.7908 54.0716 14.8108 54.0716C14.8308 54.0716 14.8508 54.0792 14.8661 54.0944L25.9059 65.1341C25.9361 65.1645 25.9361 65.2141 25.9058 65.2445ZM25.788 61.7033L18.2969 54.2122L21.5709 50.9381C23.6398 53.8267 26.1734 56.3605 29.062 58.4292L25.788 61.7033Z" fill="#058C42"/>
</svg>
