<svg width="19" height="30" viewBox="0 0 19 30" fill="none" xmlns="http://www.w3.org/2000/svg">
<path d="M9.16667 5.625C9.40978 5.625 9.64294 5.72377 9.81485 5.89959C9.98676 6.0754 10.0833 6.31386 10.0833 6.5625V10.3125C10.0833 10.5611 9.98676 10.7996 9.81485 10.9754C9.64294 11.1512 9.40978 11.25 9.16667 11.25C8.92355 11.25 8.69039 11.1512 8.51849 10.9754C8.34658 10.7996 8.25 10.5611 8.25 10.3125V6.5625C8.25 6.31386 8.34658 6.0754 8.51849 5.89959C8.69039 5.72377 8.92355 5.625 9.16667 5.625ZM16.5 20.625C16.5 22.6141 15.7274 24.5218 14.3521 25.9283C12.9769 27.3348 11.1116 28.125 9.16667 28.125C7.22175 28.125 5.35648 27.3348 3.98122 25.9283C2.60595 24.5218 1.83333 22.6141 1.83333 20.625V9.375C1.83333 7.38588 2.60595 5.47822 3.98122 4.0717C5.35648 2.66518 7.22175 1.875 9.16667 1.875C11.1116 1.875 12.9769 2.66518 14.3521 4.0717C15.7274 5.47822 16.5 7.38588 16.5 9.375V20.625ZM9.16667 0C6.73552 0 4.40394 0.98772 2.68485 2.74587C0.965771 4.50403 0 6.8886 0 9.375V20.625C0 23.1114 0.965771 25.496 2.68485 27.2541C4.40394 29.0123 6.73552 30 9.16667 30C11.5978 30 13.9294 29.0123 15.6485 27.2541C17.3676 25.496 18.3333 23.1114 18.3333 20.625V9.375C18.3333 6.8886 17.3676 4.50403 15.6485 2.74587C13.9294 0.98772 11.5978 0 9.16667 0V0Z" fill="#058C42"/>
</svg>
