<svg width="55" height="43" viewBox="0 0 55 43" fill="none" xmlns="http://www.w3.org/2000/svg">
<path d="M50.1378 4.06403C53.3014 7.43363 54.9999 11.2129 54.9999 17.3391C54.9999 28.1194 47.4533 37.7816 36.479 42.5588L33.7362 38.3145C43.9795 32.758 45.9821 25.5475 46.7807 21.0014C45.1313 21.8576 42.9721 22.1564 40.8558 21.9593C35.3149 21.4449 30.9473 16.8833 30.9473 11.2129C30.9473 8.35378 32.0799 5.61177 34.0959 3.59008C36.112 1.56839 38.8463 0.432617 41.6974 0.432617C44.9931 0.432617 48.1444 1.94185 50.1378 4.06403ZM19.4232 4.06403C22.5868 7.43363 24.2853 11.2129 24.2853 17.3391C24.2853 28.1194 16.7388 37.7816 5.76446 42.5588L3.02165 38.3145C13.265 32.758 15.2675 25.5475 16.0661 21.0014C14.4167 21.8576 12.2575 22.1564 10.1413 21.9593C4.60038 21.4449 0.23584 16.8833 0.23584 11.2129C0.23584 8.35378 1.36843 5.61177 3.38447 3.59008C5.4005 1.56839 8.13483 0.432617 10.9859 0.432617C14.2816 0.432617 17.4329 1.94185 19.4263 4.06403H19.4232Z" fill="#058C42"/>
</svg>
