<svg width="80" height="80" viewBox="0 0 80 80" fill="none" xmlns="http://www.w3.org/2000/svg">
<path d="M76.0139 39.973L72.3844 39.5185C71.2809 36.8188 69.6956 34.3216 67.7253 32.161L70.3939 20.8556C70.5036 20.391 70.3948 19.9017 70.0986 19.5274C69.8023 19.153 69.3512 18.9346 68.8739 18.9342L68.5325 18.9341C68.5305 18.9341 68.5291 18.9341 68.527 18.9341C64.0972 18.9341 60.1048 21.7213 58.5345 25.8094C57.4239 25.368 56.2822 25.0044 55.1178 24.7289C54.278 24.5303 53.4363 25.0499 53.2377 25.8899C53.0391 26.7297 53.5588 27.5714 54.3986 27.77C58.3759 28.7108 61.9239 30.722 64.7205 33.5131C64.8227 33.6628 64.95 33.7953 65.0997 33.9025C67.1383 36.0422 68.7497 38.6094 69.795 41.4863C69.9952 42.0375 70.4875 42.4303 71.0694 42.5031L75.6259 43.0736C76.3383 43.1628 76.8753 43.7714 76.8753 44.4892V52.3669C76.8753 53.0847 76.3381 53.6933 75.6259 53.7825L71.4036 54.3111C70.7962 54.3871 70.2892 54.8106 70.1064 55.3949C68.8538 59.3972 66.4737 62.9364 63.2233 65.6295C62.865 65.9264 62.6577 66.3675 62.6577 66.8327V75.4692C62.6577 76.2444 62.027 76.875 61.252 76.875H52.1884C51.4133 76.875 50.7827 76.2444 50.7827 75.4692V72.1777C50.7827 71.3147 50.083 70.6152 49.2202 70.6152H36.093C35.2302 70.6152 34.5305 71.3147 34.5305 72.1777V75.4692C34.5305 76.2444 33.8998 76.875 33.1247 76.875H24.0609C23.2859 76.875 22.6553 76.2444 22.6553 75.4692V69.371C22.6553 68.798 22.3417 68.2711 21.8383 67.9978C14.8255 64.1903 10.4688 56.873 10.4688 48.9014C10.4688 36.9283 20.2095 27.1875 32.1827 27.1875H34.1406C35.0034 27.1875 35.7031 26.488 35.7031 25.625C35.7031 24.7621 35.0034 24.0625 34.1406 24.0625H32.1827C20.5839 24.0625 10.8175 32.0542 8.09797 42.8203H6.95312C4.84219 42.8203 3.125 41.103 3.125 38.9922C3.125 36.8814 4.84219 35.1641 6.95312 35.1641C7.81594 35.1641 8.51562 34.4646 8.51562 33.6016C8.51562 32.7386 7.81594 32.0391 6.95312 32.0391C3.11922 32.0391 0 35.1581 0 38.9922C0 42.8263 3.11922 45.9453 6.95312 45.9453H7.52047C7.40484 46.915 7.34375 47.9011 7.34375 48.9014C7.34375 57.706 11.9897 65.8127 19.5302 70.2806V75.4694C19.5302 77.9677 21.5627 80.0002 24.0608 80.0002H33.1244C35.6227 80.0002 37.6552 77.9677 37.6552 75.4694V73.7403H47.6573V75.4694C47.6573 77.9677 49.6898 80.0002 52.1881 80.0002H61.2517C63.7498 80.0002 65.7823 77.9677 65.7823 75.4694V67.5531C68.9548 64.763 71.3489 61.2435 72.7658 57.29L76.0137 56.8833C78.2862 56.5989 80 54.6572 80 52.3669V44.4892C80 42.1991 78.2864 40.2574 76.0139 39.973ZM65.1012 29.6746C63.9356 28.7211 62.6872 27.8764 61.3741 27.1511C62.2373 24.6706 64.343 22.825 66.8541 22.2488L65.1012 29.6746Z" fill="#058C42"/>
<path d="M62.1984 39.6766C61.908 39.3859 61.5048 39.2188 61.0939 39.2188C60.683 39.2188 60.2798 39.3859 59.9892 39.6766C59.6986 39.9672 59.5314 40.3703 59.5314 40.7812C59.5314 41.1922 59.6984 41.5953 59.9892 41.8859C60.28 42.1766 60.683 42.3438 61.0939 42.3438C61.5048 42.3438 61.908 42.1766 62.1984 41.8859C62.4891 41.5953 62.6564 41.1922 62.6564 40.7812C62.6564 40.3703 62.4891 39.9672 62.1984 39.6766Z" fill="#058C42"/>
<path d="M45.8191 9.1145C44.9562 9.1145 44.2566 9.81403 44.2566 10.677V16.8747C44.2566 17.7376 44.9562 18.4372 45.8191 18.4372C46.6819 18.4372 47.3816 17.7376 47.3816 16.8747V10.677C47.3816 9.81419 46.682 9.1145 45.8191 9.1145Z" fill="#058C42"/>
<path d="M46.9234 3.90313C46.633 3.6125 46.2298 3.44531 45.8189 3.44531C45.4078 3.44531 45.0048 3.6125 44.7142 3.90313C44.4236 4.19375 44.2564 4.59687 44.2564 5.00781C44.2564 5.42031 44.4234 5.82187 44.7142 6.1125C45.0048 6.40313 45.4078 6.57031 45.8189 6.57031C46.2298 6.57031 46.633 6.40313 46.9234 6.1125C47.2141 5.82187 47.3814 5.41875 47.3814 5.00781C47.3814 4.59687 47.2141 4.19531 46.9234 3.90313Z" fill="#058C42"/>
<path d="M33.125 0C32.2622 0 31.5625 0.699531 31.5625 1.5625V4.21875C31.5625 5.08172 32.2622 5.78125 33.125 5.78125C33.9878 5.78125 34.6875 5.08172 34.6875 4.21875V1.5625C34.6875 0.699531 33.988 0 33.125 0Z" fill="#058C42"/>
<path d="M17.8028 48.9014C17.8028 48.0384 17.1031 47.3389 16.2403 47.3389C15.3775 47.3389 14.6778 48.0384 14.6778 48.9014L14.678 48.9843C14.6833 49.8439 15.3819 50.5371 16.2403 50.5371C16.2434 50.5371 16.2467 50.5371 16.2501 50.5371C17.113 50.5317 17.8083 49.8278 17.803 48.9648L17.8028 48.9014Z" fill="#058C42"/>
<path d="M24.7192 61.1954C22.0031 59.5425 19.883 57.0029 18.7495 54.0447C18.4406 53.2386 17.537 52.8356 16.7314 53.1447C15.9256 53.4534 15.5227 54.3569 15.8314 55.1628C17.2111 58.7639 19.7906 61.8544 23.0949 63.865C23.3486 64.0194 23.6288 64.0929 23.9055 64.0929C24.4328 64.0929 24.9477 63.8259 25.2419 63.3425C25.6905 62.6053 25.4563 61.644 24.7192 61.1954Z" fill="#058C42"/>
<path d="M33.125 7.50818C29.5064 7.50818 26.5625 10.4521 26.5625 14.0707C26.5625 17.6893 29.5064 20.6332 33.125 20.6332C36.7436 20.6332 39.6875 17.6893 39.6875 14.0707C39.6875 10.4521 36.7436 7.50818 33.125 7.50818ZM33.125 17.5082C31.2295 17.5082 29.6875 15.9661 29.6875 14.0707C29.6875 12.1752 31.2295 10.6332 33.125 10.6332C35.0205 10.6332 36.5625 12.1752 36.5625 14.0707C36.5625 15.9661 35.0205 17.5082 33.125 17.5082Z" fill="#058C42"/>
<path d="M52.8125 33.125H51.4062C52.0241 32.1245 52.3816 30.9472 52.3816 29.6875C52.3816 26.0689 49.4377 23.125 45.8191 23.125C42.2005 23.125 39.2566 26.0689 39.2566 29.6875C39.2564 30.9472 39.6139 32.1245 40.2317 33.125H32.5C31.6372 33.125 30.9375 33.8245 30.9375 34.6875C30.9375 35.5505 31.6372 36.25 32.5 36.25H52.8125C53.6753 36.25 54.375 35.5505 54.375 34.6875C54.375 33.8245 53.6755 33.125 52.8125 33.125ZM45.8191 33.125C43.9236 33.125 42.3816 31.583 42.3816 29.6875C42.3816 27.792 43.9236 26.25 45.8191 26.25C47.7145 26.25 49.2566 27.792 49.2566 29.6875C49.2566 31.583 47.7144 33.125 45.8191 33.125Z" fill="#058C42"/>
</svg>
