<svg width="80" height="80" viewBox="0 0 80 80" fill="none" xmlns="http://www.w3.org/2000/svg">
<path d="M79.8663 62.4126L70.5054 32.6208C69.8297 30.4697 68.3777 29.2355 66.5216 29.2355H24.2378C23.3766 29.2355 22.6778 29.9354 22.6778 30.7979C22.6778 31.6611 23.3766 32.3604 24.2378 32.3604H29.4514L28.8362 39.1359H10.7186L12.4709 33.5585C12.8475 32.3604 13.3223 32.3604 13.4786 32.3604C14.3404 32.3604 15.0386 31.6611 15.0386 30.7979C15.0386 29.9354 14.3404 29.2355 13.4786 29.2355C11.6225 29.2355 10.1705 30.4691 9.49422 32.6208L0.133288 62.4126C-0.147473 63.3063 0.0185423 64.2367 0.600816 65.0313C1.35948 66.0662 2.74009 66.7356 4.11765 66.7356H35.9437V71.8747H28.4553C26.219 71.8747 24.399 73.697 24.399 75.9373V78.4375C24.399 79.3 25.0978 80 25.959 80H54.0412C54.9024 80 55.6012 79.3 55.6012 78.4375V75.9373C55.6012 73.697 53.7812 71.8747 51.5449 71.8747H44.0565V66.7356H75.8825C77.2601 66.7356 78.6407 66.0662 79.3994 65.0313C79.9817 64.2367 80.1477 63.3063 79.8663 62.4126ZM29.7474 63.6107L30.6648 53.5043H49.3348L50.2521 63.6107H29.7474ZM30.9486 50.3793L31.6859 42.2608H48.3149L49.0516 50.3793H30.9486ZM51.4478 42.2608H70.2637L72.8143 50.3793H52.1845L51.4478 42.2608ZM67.5293 33.5591L69.2816 39.1359H51.164L50.5488 32.3604H66.5216C66.6779 32.3604 67.1527 32.3604 67.5293 33.5591ZM32.5844 32.3604H47.4158L48.0311 39.1359H31.9691L32.5844 32.3604ZM28.5524 42.2608L27.8157 50.3793H7.18588L9.73653 42.2608H28.5524ZM3.14902 63.2256L6.20382 53.5043H27.5319L26.6145 63.6107H4.11765C3.6959 63.6107 3.29429 63.3845 3.14902 63.2256ZM52.4811 75.9373V76.8744H27.5197V75.9373C27.5197 75.4294 27.9481 74.9996 28.4553 74.9996H51.5449C52.0521 74.9996 52.4811 75.4294 52.4811 75.9373ZM40.9364 71.8747H39.0638V66.7356H40.9364V71.8747ZM75.8825 63.6107H53.3857L52.4683 53.5043H73.7964L76.8512 63.2256C76.7059 63.3845 76.3043 63.6107 75.8825 63.6107Z" fill="#058C42"/>
<path d="M40.0001 19.618C43.4413 19.618 46.2403 16.8147 46.2403 13.3682C46.2403 9.92178 43.4413 7.11841 40.0001 7.11841C36.559 7.11841 33.7599 9.92178 33.7599 13.3682C33.7599 16.8147 36.559 19.618 40.0001 19.618ZM40.0001 10.2433C41.7207 10.2433 43.1202 11.645 43.1202 13.3682C43.1202 15.0908 41.7207 16.4931 40.0001 16.4931C38.2795 16.4931 36.88 15.0908 36.88 13.3682C36.88 11.645 38.2795 10.2433 40.0001 10.2433Z" fill="#058C42"/>
<path d="M40.0001 5.55539C40.8619 5.55539 41.5602 4.85608 41.5602 3.99294V1.56245C41.5602 0.699315 40.8619 0 40.0001 0C39.1383 0 38.4401 0.699315 38.4401 1.56245V3.99294C38.4401 4.85608 39.1383 5.55539 40.0001 5.55539Z" fill="#058C42"/>
<path d="M29.0119 8.81842L31.1134 10.0337C31.3593 10.1761 31.6273 10.2433 31.8922 10.2433C32.4311 10.2433 32.9554 9.96275 33.2447 9.4615C33.6756 8.7145 33.4199 7.75906 32.6734 7.32749L30.572 6.11225C29.8255 5.68068 28.8715 5.93681 28.4406 6.6838C28.0097 7.43141 28.2655 8.38685 29.0119 8.81842Z" fill="#058C42"/>
<path d="M29.7932 20.834C30.0581 20.834 30.326 20.7662 30.572 20.6243L32.6734 19.4091C33.4199 18.9775 33.6756 18.0221 33.2447 17.2745C32.8138 16.5269 31.8592 16.2707 31.1134 16.7023L29.0113 17.9176C28.2655 18.3491 28.0098 19.3046 28.4407 20.0522C28.73 20.5534 29.2543 20.834 29.7932 20.834Z" fill="#058C42"/>
<path d="M38.4401 22.7436V25.1741C38.4401 26.0366 39.1383 26.7365 40.0001 26.7365C40.8619 26.7365 41.5602 26.0366 41.5602 25.1741V22.7436C41.5602 21.8805 40.8619 21.1805 40.0001 21.1805C39.1383 21.1805 38.4401 21.8805 38.4401 22.7436Z" fill="#058C42"/>
<path d="M47.3267 19.409L49.4282 20.6242C49.6741 20.7661 49.9421 20.8339 50.207 20.8339C50.7459 20.8339 51.2702 20.5533 51.5595 20.0521C51.9904 19.3051 51.7347 18.3496 50.9882 17.9181L48.8868 16.7028C48.1403 16.2713 47.1864 16.5274 46.7555 17.2744C46.3245 18.022 46.5803 18.9774 47.3267 19.409Z" fill="#058C42"/>
<path d="M48.108 10.2433C48.3729 10.2433 48.6415 10.1755 48.8868 10.0337L50.9889 8.81843C51.7347 8.38686 51.9904 7.43142 51.5595 6.68381C51.1286 5.93621 50.1747 5.68069 49.4288 6.11226L47.3268 7.3275C46.5809 7.75907 46.3252 8.71451 46.7561 9.46151C47.0448 9.96338 47.5691 10.2433 48.108 10.2433Z" fill="#058C42"/>
<path d="M17.9609 32.3604H18.003C18.8649 32.3604 19.5631 31.6611 19.5631 30.7979C19.5631 29.9354 18.8649 29.2355 18.003 29.2355H17.9609C17.0991 29.2355 16.4009 29.9354 16.4009 30.7979C16.4009 31.6611 17.0991 32.3604 17.9609 32.3604Z" fill="#058C42"/>
<path d="M61.488 58.9227H61.4508C60.5896 58.9227 59.8907 59.622 59.8907 60.4852C59.8907 61.3477 60.5896 62.0476 61.4508 62.0476H61.488C62.3492 62.0476 63.0481 61.3477 63.0481 60.4852C63.0481 59.622 62.3492 58.9227 61.488 58.9227Z" fill="#058C42"/>
<path d="M72.3718 58.9227H65.9705C65.1086 58.9227 64.4098 59.622 64.4098 60.4852C64.4098 61.3483 65.1086 62.0476 65.9705 62.0476H72.3718C73.2336 62.0476 73.9319 61.3483 73.9319 60.4852C73.9319 59.622 73.2336 58.9227 72.3718 58.9227Z" fill="#058C42"/>
</svg>
