<svg width="80" height="80" viewBox="0 0 80 80" fill="none" xmlns="http://www.w3.org/2000/svg">
<path d="M14.0704 61.8671C12.9504 61.8671 11.8738 62.1466 10.9186 62.6715C5.88684 56.2213 3.125 48.2086 3.125 40C3.125 19.6667 19.6667 3.125 40 3.125C42.4719 3.125 44.9426 3.37097 47.3438 3.8562C48.1885 4.0271 49.0137 3.48022 49.1846 2.63428C49.3555 1.78833 48.8086 0.964356 47.9626 0.792847C45.3583 0.266724 42.6794 0 40 0C29.3158 0 19.2706 4.16077 11.7157 11.7157C4.16077 19.2706 0 29.3158 0 40C0 48.9874 3.05176 57.7582 8.60779 64.7894C7.89246 65.8582 7.50793 67.1143 7.50793 68.4296C7.50793 70.1825 8.19092 71.8304 9.43054 73.0695C10.6696 74.3091 12.3175 74.9921 14.0704 74.9921C15.8234 74.9921 17.4713 74.3091 18.7109 73.0695C19.9506 71.8304 20.6329 70.1819 20.6329 68.429C20.6329 66.6766 19.9506 65.0281 18.7109 63.7891C17.4713 62.5494 15.8234 61.8671 14.0704 61.8671ZM16.5009 70.86C15.8521 71.5094 14.9884 71.8671 14.0704 71.8671C13.1525 71.8671 12.2894 71.5094 11.64 70.86C10.9906 70.2106 10.6329 69.3475 10.6329 68.4296C10.6329 67.511 10.9906 66.6479 11.64 65.9985C12.2888 65.3491 13.1525 64.9921 14.0704 64.9921C14.9884 64.9921 15.8514 65.3497 16.5009 65.9985C17.1503 66.6479 17.5079 67.511 17.5079 68.4296C17.5079 69.3475 17.1503 70.2106 16.5009 70.86Z" fill="#058C42"/>
<path d="M71.391 15.2087C73.0896 12.6605 72.8168 9.17664 70.5701 6.92993C69.3305 5.69092 67.6825 5.00793 65.9296 5.00793C64.1766 5.00793 62.5287 5.69092 61.2891 6.92993C60.0495 8.16956 59.3671 9.8175 59.3671 11.5704C59.3671 13.3234 60.0495 14.9713 61.2891 16.2109C62.5287 17.4506 64.1766 18.1329 65.9296 18.1329C67.0496 18.1329 68.1262 17.8534 69.0814 17.3285C74.1132 23.7793 76.875 31.7914 76.875 40C76.875 60.3333 60.3333 76.875 40 76.875C37.5525 76.875 35.105 76.6339 32.7265 76.1578C31.8805 75.9888 31.0571 76.5375 30.8875 77.3834C30.7184 78.23 31.2671 79.0527 32.1131 79.2224C34.693 79.7382 37.3468 80 40 80C50.6842 80 60.7294 75.8392 68.2843 68.2843C75.8392 60.7294 80 50.6842 80 40C80 31.012 76.9476 22.2406 71.391 15.2087ZM63.4992 14.0015C62.8497 13.3521 62.4921 12.489 62.4921 11.5704C62.4921 10.6525 62.8497 9.78943 63.4992 9.14001C64.148 8.4906 65.0116 8.13293 65.9296 8.13293C66.8475 8.13293 67.7112 8.4906 68.3606 9.14001C69.7003 10.4803 69.7003 12.6611 68.3606 14.0015C67.7112 14.6503 66.8475 15.0079 65.9296 15.0079C65.011 15.0079 64.148 14.6503 63.4992 14.0015Z" fill="#058C42"/>
<path d="M33.5522 66.875C33.5522 67.738 34.2523 68.4375 35.1147 68.4375H44.8846C45.7477 68.4375 46.4471 67.738 46.4471 66.875V63.8458C48.5016 63.2928 50.4657 62.4786 52.3114 61.4154L54.4501 63.5541C54.743 63.847 55.1404 64.0118 55.5554 64.0118C55.9692 64.0118 56.3672 63.847 56.6602 63.5535L63.5657 56.6431C64.1754 56.0327 64.1754 55.0433 63.5657 54.4336L61.4294 52.2974C62.4927 50.4517 63.3069 48.4875 63.8599 46.4331H66.8774C67.7405 46.4331 68.4399 45.7336 68.4399 44.8706V35.1007C68.4399 34.2377 67.7405 33.5382 66.8774 33.5382H63.8593C63.3063 31.4844 62.4927 29.5203 61.4294 27.6746L63.5541 25.5499C63.847 25.257 64.0118 24.859 64.0118 24.4446C64.0112 24.0302 63.8464 23.6322 63.5535 23.3392L56.6425 16.4337C56.0327 15.824 55.0433 15.824 54.433 16.4343L52.3114 18.5565C50.4657 17.4933 48.5016 16.6791 46.4471 16.1261V13.125C46.4471 12.262 45.7477 11.5625 44.8846 11.5625H35.1147C34.2523 11.5625 33.5522 12.262 33.5522 13.125V16.1267C31.4984 16.6791 29.5343 17.4933 27.6886 18.5565L25.5664 16.4343C24.9567 15.8246 23.9673 15.824 23.3569 16.4337L16.4465 23.3398C16.153 23.6328 15.9882 24.0302 15.9882 24.4446C15.9882 24.859 16.153 25.257 16.4459 25.5499L18.5706 27.6746C17.5073 29.5203 16.6931 31.4838 16.1401 33.5382H13.1281C12.265 33.5382 11.5656 34.2377 11.5656 35.1001L11.5601 44.87C11.5594 45.2844 11.7242 45.6824 12.0172 45.9753C12.3102 46.2683 12.7075 46.4331 13.1226 46.4331H16.1401C16.6931 48.4875 17.5073 50.4517 18.5706 52.2974L16.4343 54.4336C15.8246 55.0433 15.824 56.0327 16.4343 56.6431L23.3398 63.5535C23.6328 63.8464 24.0302 64.0118 24.4446 64.0118H24.4452C24.8596 64.0118 25.257 63.847 25.5499 63.5541L27.688 61.4154C29.5343 62.4786 31.4984 63.2928 33.5522 63.8458V66.875ZM28.3008 58.1293C27.6825 57.7295 26.8689 57.8162 26.3477 58.3368L24.4452 60.2393L19.7485 55.5389L21.6492 53.6377C22.1698 53.1171 22.2565 52.3035 21.8567 51.6852C20.4401 49.4928 19.444 47.0898 18.8971 44.5422C18.7421 43.8226 18.1061 43.3081 17.3694 43.3081H14.6857L14.6893 36.6632H17.3694C18.1061 36.6632 18.7421 36.1493 18.8971 35.4291C19.444 32.8821 20.4401 30.4791 21.8567 28.2867C22.2565 27.6685 22.1698 26.8549 21.6492 26.3342L19.7607 24.4452L24.4611 19.7485L26.3477 21.6357C26.8689 22.1564 27.6819 22.2424 28.3008 21.8433C30.4926 20.4266 32.8955 19.4305 35.4431 18.8837C36.1627 18.7286 36.6772 18.092 36.6772 17.356V14.6875H43.3221V17.3553C43.3221 18.092 43.8361 18.7286 44.5563 18.8831C47.1033 19.4305 49.5068 20.426 51.6986 21.8427C52.3169 22.2424 53.1305 22.1564 53.6511 21.6351L55.5383 19.7485L60.2386 24.4452L58.3502 26.3336C57.829 26.8549 57.7429 27.6685 58.1427 28.2867C59.5593 30.4791 60.5548 32.8821 61.1023 35.4291C61.2567 36.1493 61.8933 36.6632 62.63 36.6632H65.3149V43.3081H62.63C61.8933 43.3081 61.2573 43.8226 61.1023 44.5422C60.5554 47.0892 59.5593 49.4928 58.1427 51.6846C57.7429 52.3035 57.8296 53.1171 58.3502 53.6377L60.2509 55.5383L55.5542 60.2386L53.6517 58.3368C53.1305 57.8156 52.3169 57.7295 51.6986 58.1293C49.5062 59.5459 47.1033 60.5414 44.5563 61.0889C43.8361 61.2439 43.3221 61.8799 43.3221 62.6166V65.3125H36.6772V62.6166C36.6772 61.8805 36.1627 61.2439 35.4431 61.0889C32.8961 60.542 30.4932 59.5459 28.3008 58.1293Z" fill="#058C42"/>
<path d="M52.9108 40C52.9108 32.8809 47.1191 27.0892 40 27.0892C32.8809 27.0892 27.0892 32.8809 27.0892 40C27.0892 47.1191 32.8809 52.9108 40 52.9108C47.1191 52.9108 52.9108 47.1191 52.9108 40ZM30.2142 40C30.2142 34.6039 34.6039 30.2142 40 30.2142C45.3961 30.2142 49.7858 34.6045 49.7858 40C49.7858 45.3955 45.3961 49.7858 40 49.7858C34.6039 49.7858 30.2142 45.3961 30.2142 40Z" fill="#058C42"/>
<path d="M54.3872 5.90942C54.7986 5.90942 55.2014 5.74219 55.4919 5.45166C55.7825 5.1593 55.9497 4.75647 55.9497 4.34509C55.9497 3.93616 55.7831 3.53271 55.4919 3.24036C55.2014 2.94983 54.7986 2.78259 54.3872 2.78259C53.9746 2.78259 53.5736 2.94983 53.2831 3.24036C52.9919 3.53271 52.8247 3.93433 52.8247 4.34509C52.8247 4.75769 52.9919 5.1593 53.2831 5.45166C53.5736 5.74219 53.9746 5.90942 54.3872 5.90942Z" fill="#058C42"/>
<path d="M25.6812 74.1187C25.2704 74.1187 24.8669 74.2859 24.5764 74.5764C24.2859 74.8669 24.1187 75.2704 24.1187 75.6812C24.1187 76.0938 24.2859 76.4954 24.5764 76.7859C24.8669 77.0764 25.2704 77.2437 25.6812 77.2437C26.0919 77.2437 26.4954 77.0764 26.7859 76.7859C27.0764 76.4954 27.2437 76.0919 27.2437 75.6812C27.2437 75.2704 27.0764 74.8669 26.7859 74.5764C26.4954 74.2859 26.0919 74.1187 25.6812 74.1187Z" fill="#058C42"/>
</svg>
